<svg width="200" height="60" viewBox="0 0 200 60" xmlns="http://www.w3.org/2000/svg">
  <defs>
    <!-- Gradient for the main elements -->
    <linearGradient id="primaryGradient" x1="0%" y1="0%" x2="100%" y2="100%">
      <stop offset="0%" style="stop-color:#2563eb;stop-opacity:1" />
      <stop offset="100%" style="stop-color:#3b82f6;stop-opacity:1" />
    </linearGradient>
    
    <!-- Gradient for accent elements -->
    <linearGradient id="secondaryGradient" x1="0%" y1="0%" x2="100%" y2="100%">
      <stop offset="0%" style="stop-color:#059669;stop-opacity:1" />
      <stop offset="100%" style="stop-color:#10b981;stop-opacity:1" />
    </linearGradient>
    
    <!-- Data flow animation -->
    <linearGradient id="flowGradient" x1="0%" y1="0%" x2="100%" y2="0%">
      <stop offset="0%" style="stop-color:#2563eb;stop-opacity:0" />
      <stop offset="50%" style="stop-color:#2563eb;stop-opacity:0.8" />
      <stop offset="100%" style="stop-color:#2563eb;stop-opacity:0" />
      <animateTransform
        attributeName="gradientTransform"
        type="translate"
        values="-100 0;100 0;-100 0"
        dur="3s"
        repeatCount="indefinite"/>
    </linearGradient>
  </defs>
  
  <!-- Background container -->
  <rect width="200" height="60" fill="transparent"/>
  
  <!-- Data source representation (left side) -->
  <rect x="8" y="18" width="24" height="24" rx="4" fill="url(#primaryGradient)" opacity="0.8"/>
  <rect x="10" y="22" width="4" height="2" rx="1" fill="white"/>
  <rect x="10" y="26" width="6" height="2" rx="1" fill="white"/>
  <rect x="10" y="30" width="8" height="2" rx="1" fill="white"/>
  <rect x="10" y="34" width="5" height="2" rx="1" fill="white"/>
  
  <!-- Connection flow lines -->
  <line x1="36" y1="30" x2="52" y2="30" stroke="url(#flowGradient)" stroke-width="2" stroke-linecap="round"/>
  <circle cx="44" cy="30" r="2" fill="#059669" opacity="0.6">
    <animate attributeName="opacity" values="0.6;1;0.6" dur="2s" repeatCount="indefinite"/>
  </circle>
  
  <!-- MXCP Text -->
  <g transform="translate(60, 15)">
    <!-- M -->
    <path d="M0 30 L0 10 L6 10 L12 22 L18 10 L24 10 L24 30 L18 30 L18 18 L15 26 L9 26 L6 18 L6 30 Z" fill="url(#primaryGradient)"/>
    
    <!-- X -->
    <path d="M32 10 L42 10 L48 18 L54 10 L64 10 L54 20 L64 30 L54 30 L48 22 L42 30 L32 30 L42 20 Z" fill="url(#primaryGradient)"/>
    
    <!-- C -->
    <path d="M72 25 L78 25 L78 23 C78 18 82 15 87 15 C92 15 96 18 96 23 L96 25 L102 25 L102 23 C102 15 95 10 87 10 C79 10 72 15 72 23 L72 27 C72 32 79 35 87 35 C95 35 102 32 102 27 L102 25 L96 25 L96 27 C96 29 92 30 87 30 C82 30 78 29 78 27 L78 25 Z" fill="url(#primaryGradient)"/>
    
    <!-- P -->
    <path d="M110 30 L110 10 L125 10 C130 10 134 13 134 18 C134 23 130 26 125 26 L116 26 L116 30 Z M116 16 L116 20 L125 20 C127 20 128 19 128 18 C128 17 127 16 125 16 Z" fill="url(#primaryGradient)"/>
  </g>
  
  <!-- AI/Output representation (right side) -->
  <circle cx="175" cy="30" r="12" fill="url(#secondaryGradient)" opacity="0.9"/>
  <circle cx="175" cy="30" r="6" fill="white" opacity="0.9"/>
  <path d="M172 27 L175 30 L178 27" stroke="#059669" stroke-width="2" stroke-linecap="round" fill="none"/>
  <path d="M172 33 L175 30 L178 33" stroke="#059669" stroke-width="2" stroke-linecap="round" fill="none"/>
  
  <!-- Connection to AI -->
  <line x1="147" y1="30" x2="161" y2="30" stroke="url(#flowGradient)" stroke-width="2" stroke-linecap="round"/>
  <circle cx="154" cy="30" r="2" fill="#059669" opacity="0.6">
    <animate attributeName="opacity" values="0.6;1;0.6" dur="2s" repeatCount="indefinite" begin="1s"/>
  </circle>
  
  <!-- Subtle tagline -->
  <text x="60" y="52" font-family="Inter, system-ui, sans-serif" font-size="8" font-weight="500" fill="#6b7280" opacity="0.8">
    DATA → AI INTERFACES
  </text>
</svg> 